<svg width="37" height="9" viewBox="0 0 37 9" fill="none" xmlns="http://www.w3.org/2000/svg">
<path d="M1.64014 8H0.361816V0.147461H4.79834V1.23242H1.64014V3.68164H4.59424V4.76123H1.64014V8ZM8.4292 1.94141C9.18115 1.94141 9.7487 2.10791 10.1318 2.44092C10.5186 2.77393 10.7119 3.29313 10.7119 3.99854V8H9.81494L9.57324 7.15674H9.53027C9.36198 7.37158 9.18831 7.54883 9.00928 7.68848C8.83024 7.82812 8.62256 7.93197 8.38623 8C8.15348 8.07161 7.86882 8.10742 7.53223 8.10742C7.17773 8.10742 6.86084 8.04297 6.58154 7.91406C6.30225 7.78158 6.08203 7.58105 5.9209 7.3125C5.75977 7.04395 5.6792 6.70378 5.6792 6.29199C5.6792 5.67969 5.90658 5.21956 6.36133 4.91162C6.81966 4.60368 7.51074 4.43359 8.43457 4.40137L9.46582 4.36377V4.05225C9.46582 3.64046 9.36914 3.34684 9.17578 3.17139C8.986 2.99593 8.71745 2.9082 8.37012 2.9082C8.07292 2.9082 7.78467 2.95117 7.50537 3.03711C7.22607 3.12305 6.95394 3.22868 6.68896 3.354L6.28076 2.4624C6.5708 2.30843 6.90023 2.18311 7.26904 2.08643C7.64144 1.98975 8.02816 1.94141 8.4292 1.94141ZM9.46045 5.15869L8.69238 5.18555C8.06217 5.20703 7.61995 5.31445 7.36572 5.50781C7.11149 5.70117 6.98438 5.96615 6.98438 6.30273C6.98438 6.59635 7.0721 6.8112 7.24756 6.94727C7.42301 7.07975 7.65397 7.146 7.94043 7.146C8.37728 7.146 8.73893 7.02246 9.02539 6.77539C9.31543 6.52474 9.46045 6.15771 9.46045 5.67432V5.15869ZM14.8745 8.10742C14.3123 8.10742 13.8254 7.99821 13.4136 7.77979C13.0018 7.56136 12.6849 7.22656 12.4629 6.77539C12.2409 6.32422 12.1299 5.7513 12.1299 5.05664C12.1299 4.33333 12.2516 3.74251 12.4951 3.28418C12.7386 2.82585 13.0752 2.48747 13.5049 2.26904C13.9382 2.05062 14.4341 1.94141 14.9927 1.94141C15.3472 1.94141 15.6676 1.97721 15.9541 2.04883C16.2441 2.11686 16.4894 2.20101 16.6899 2.30127L16.314 3.31104C16.0955 3.22152 15.8717 3.14632 15.6426 3.08545C15.4134 3.02458 15.1932 2.99414 14.9819 2.99414C14.6346 2.99414 14.3446 3.07113 14.1118 3.2251C13.8826 3.37907 13.7108 3.60824 13.5962 3.9126C13.4852 4.21696 13.4297 4.59473 13.4297 5.0459C13.4297 5.48275 13.487 5.85156 13.6016 6.15234C13.7161 6.44954 13.8862 6.67513 14.1118 6.8291C14.3374 6.97949 14.6149 7.05469 14.9443 7.05469C15.2702 7.05469 15.562 7.0153 15.8198 6.93652C16.0776 6.85775 16.3211 6.7557 16.5503 6.63037V7.72607C16.3247 7.85498 16.083 7.94987 15.8252 8.01074C15.5674 8.0752 15.2505 8.10742 14.8745 8.10742ZM20.3154 1.94141C20.8454 1.94141 21.3001 2.05062 21.6797 2.26904C22.0592 2.48747 22.3511 2.7972 22.5552 3.19824C22.7593 3.59928 22.8613 4.0791 22.8613 4.6377V5.31445H18.8921C18.9064 5.89095 19.0604 6.33496 19.354 6.64648C19.6512 6.95801 20.0666 7.11377 20.6001 7.11377C20.9797 7.11377 21.3198 7.07796 21.6206 7.00635C21.925 6.93115 22.2383 6.82194 22.5605 6.67871V7.70459C22.2633 7.84424 21.9608 7.94629 21.6528 8.01074C21.3449 8.0752 20.9761 8.10742 20.5464 8.10742C19.9627 8.10742 19.4489 7.99463 19.0049 7.76904C18.5645 7.53988 18.2189 7.19971 17.9683 6.74854C17.7212 6.29736 17.5977 5.73698 17.5977 5.06738C17.5977 4.40137 17.7104 3.83561 17.936 3.37012C18.1616 2.90462 18.4785 2.55013 18.8867 2.30664C19.2949 2.06315 19.7712 1.94141 20.3154 1.94141ZM20.3154 2.89209C19.918 2.89209 19.5957 3.021 19.3486 3.27881C19.1051 3.53662 18.9619 3.91439 18.9189 4.41211H21.626C21.6224 4.11491 21.5723 3.85173 21.4756 3.62256C21.3825 3.39339 21.2393 3.21436 21.0459 3.08545C20.8561 2.95654 20.6126 2.89209 20.3154 2.89209ZM27.271 8V0.147461H28.5601V8H27.271ZM37.0088 3.99854C37.0088 4.88298 36.8441 5.6224 36.5146 6.2168C36.1852 6.80762 35.7072 7.25342 35.0806 7.5542C34.4539 7.8514 33.6984 8 32.814 8H30.6333V0.147461H33.0503C33.8631 0.147461 34.5649 0.294271 35.1558 0.587891C35.7466 0.87793 36.2031 1.30941 36.5254 1.88232C36.8477 2.45166 37.0088 3.15706 37.0088 3.99854ZM35.666 4.03613C35.666 3.3916 35.564 2.86165 35.3599 2.44629C35.1593 2.03092 34.8621 1.72298 34.4683 1.52246C34.078 1.31836 33.5964 1.21631 33.0234 1.21631H31.9224V6.92041H32.8354C33.7843 6.92041 34.4933 6.67871 34.9624 6.19531C35.4315 5.71191 35.666 4.99219 35.666 4.03613Z" fill="white"/>
</svg>
