<svg width="109" height="109" viewBox="0 0 109 109" fill="none" xmlns="http://www.w3.org/2000/svg">
<g filter="url(#filter0_ddii_33_23841)">
<circle cx="50.5" cy="50.5" r="32.5" fill="url(#paint0_linear_33_23841)" shape-rendering="crispEdges"/>
<circle cx="50.5" cy="50.5" r="32.5" stroke="url(#paint1_linear_33_23841)" stroke-opacity="0.8" stroke-width="1.5" shape-rendering="crispEdges"/>
</g>
<path d="M57.9429 44.6675L50.6285 37.3429L43.3143 44.6675" stroke="white" stroke-width="2" stroke-linecap="round"/>
<path d="M33.5659 65.8623C33.5659 66.3278 33.4513 66.7288 33.2222 67.0654C32.9966 67.402 32.6707 67.6598 32.2446 67.8389C31.8221 68.0179 31.3172 68.1074 30.73 68.1074C30.4435 68.1074 30.1696 68.0913 29.9082 68.0591C29.6468 68.0269 29.3997 67.9803 29.167 67.9194C28.9378 67.855 28.7284 67.778 28.5386 67.6885V66.4746C28.8573 66.6143 29.2135 66.7414 29.6074 66.856C30.0013 66.967 30.4023 67.0225 30.8105 67.0225C31.1436 67.0225 31.4193 66.9795 31.6377 66.8936C31.8597 66.804 32.0244 66.6787 32.1318 66.5176C32.2393 66.3529 32.293 66.1613 32.293 65.9429C32.293 65.7101 32.2303 65.5132 32.105 65.3521C31.9797 65.1909 31.7899 65.0441 31.5356 64.9116C31.285 64.7756 30.9699 64.6305 30.5903 64.4766C30.3325 64.3727 30.0854 64.2546 29.8491 64.1221C29.6164 63.9896 29.4087 63.8338 29.2261 63.6548C29.0435 63.4757 28.8984 63.2645 28.791 63.021C28.6872 62.7739 28.6353 62.4839 28.6353 62.1509C28.6353 61.7069 28.7409 61.3273 28.9521 61.0122C29.167 60.6971 29.4678 60.4554 29.8545 60.2871C30.2448 60.1188 30.6995 60.0347 31.2188 60.0347C31.6305 60.0347 32.0173 60.0776 32.3789 60.1636C32.7441 60.2495 33.1022 60.3713 33.4531 60.5288L33.0449 61.5654C32.7227 61.4329 32.4093 61.3273 32.105 61.2485C31.8042 61.1698 31.4963 61.1304 31.1812 61.1304C30.909 61.1304 30.6781 61.1715 30.4883 61.2539C30.2985 61.3363 30.1535 61.4526 30.0532 61.603C29.9565 61.7498 29.9082 61.9253 29.9082 62.1294C29.9082 62.3586 29.9637 62.5519 30.0747 62.7095C30.1893 62.8634 30.3647 63.0049 30.6011 63.1338C30.841 63.2627 31.1489 63.4059 31.5249 63.5635C31.9582 63.7425 32.3252 63.9305 32.626 64.1274C32.9303 64.3244 33.1631 64.5607 33.3242 64.8364C33.4854 65.1086 33.5659 65.4505 33.5659 65.8623ZM41.6709 61.9414C42.3369 61.9414 42.8382 62.1133 43.1748 62.457C43.515 62.8008 43.6851 63.3522 43.6851 64.1113V68H42.4229V64.3369C42.4229 63.8857 42.3351 63.5456 42.1597 63.3164C41.9842 63.0872 41.7174 62.9727 41.3594 62.9727C40.8581 62.9727 40.4964 63.1338 40.2744 63.4561C40.056 63.7747 39.9468 64.2384 39.9468 64.8472V68H38.6846V64.3369C38.6846 64.0361 38.6452 63.7855 38.5664 63.585C38.4912 63.3809 38.3748 63.2287 38.2173 63.1284C38.0597 63.0246 37.861 62.9727 37.6211 62.9727C37.2738 62.9727 36.9963 63.0514 36.7886 63.209C36.5845 63.3665 36.4377 63.5993 36.3481 63.9072C36.2586 64.2116 36.2139 64.5858 36.2139 65.0298V68H34.9517V62.0542H35.9346L36.1118 62.8545H36.1816C36.3034 62.6468 36.4538 62.4767 36.6328 62.3442C36.8154 62.2082 37.0177 62.1079 37.2397 62.0435C37.4618 61.9754 37.6927 61.9414 37.9326 61.9414C38.3766 61.9414 38.7508 62.0202 39.0552 62.1777C39.3595 62.3317 39.5869 62.568 39.7373 62.8867H39.834C40.0202 62.5645 40.2798 62.3263 40.6128 62.1724C40.9458 62.0184 41.2985 61.9414 41.6709 61.9414ZM47.7778 61.9414C48.5298 61.9414 49.0973 62.1079 49.4805 62.4409C49.8672 62.7739 50.0605 63.2931 50.0605 63.9985V68H49.1636L48.9219 67.1567H48.8789C48.7106 67.3716 48.5369 67.5488 48.3579 67.6885C48.1789 67.8281 47.9712 67.932 47.7349 68C47.5021 68.0716 47.2174 68.1074 46.8809 68.1074C46.5264 68.1074 46.2095 68.043 45.9302 67.9141C45.6509 67.7816 45.4307 67.5811 45.2695 67.3125C45.1084 67.0439 45.0278 66.7038 45.0278 66.292C45.0278 65.6797 45.2552 65.2196 45.71 64.9116C46.1683 64.6037 46.8594 64.4336 47.7832 64.4014L48.8145 64.3638V64.0522C48.8145 63.6405 48.7178 63.3468 48.5244 63.1714C48.3346 62.9959 48.0661 62.9082 47.7188 62.9082C47.4215 62.9082 47.1333 62.9512 46.854 63.0371C46.5747 63.123 46.3026 63.2287 46.0376 63.354L45.6294 62.4624C45.9194 62.3084 46.2489 62.1831 46.6177 62.0864C46.9901 61.9897 47.3768 61.9414 47.7778 61.9414ZM48.8091 65.1587L48.041 65.1855C47.4108 65.207 46.9686 65.3145 46.7144 65.5078C46.4601 65.7012 46.333 65.9661 46.333 66.3027C46.333 66.5964 46.4207 66.8112 46.5962 66.9473C46.7716 67.0798 47.0026 67.146 47.2891 67.146C47.7259 67.146 48.0876 67.0225 48.374 66.7754C48.6641 66.5247 48.8091 66.1577 48.8091 65.6743V65.1587ZM54.8408 61.9414C54.9411 61.9414 55.0503 61.9468 55.1685 61.9575C55.2866 61.9683 55.3887 61.9826 55.4746 62.0005L55.3564 63.1821C55.2812 63.1606 55.1882 63.1445 55.0771 63.1338C54.9697 63.123 54.873 63.1177 54.7871 63.1177C54.5615 63.1177 54.3467 63.1553 54.1426 63.2305C53.9385 63.3021 53.7576 63.4131 53.6001 63.5635C53.4425 63.7103 53.319 63.8947 53.2295 64.1167C53.14 64.3387 53.0952 64.5965 53.0952 64.8901V68H51.8276V62.0542H52.8159L52.9878 63.1016H53.0469C53.165 62.8903 53.3118 62.6969 53.4873 62.5215C53.6628 62.346 53.8633 62.2064 54.0889 62.1025C54.318 61.9951 54.5687 61.9414 54.8408 61.9414ZM58.7886 67.0869C58.9533 67.0869 59.1162 67.0726 59.2773 67.0439C59.4385 67.0117 59.5853 66.9741 59.7178 66.9312V67.8872C59.5781 67.9481 59.3973 68 59.1753 68.043C58.9533 68.0859 58.7223 68.1074 58.4824 68.1074C58.1458 68.1074 57.8433 68.0519 57.5747 67.9409C57.3062 67.8263 57.0931 67.6312 56.9355 67.3555C56.778 67.0798 56.6992 66.6984 56.6992 66.2114V63.0156H55.8882V62.4517L56.7583 62.0059L57.1719 60.7329H57.9668V62.0542H59.6694V63.0156H57.9668V66.1953C57.9668 66.4961 58.042 66.7199 58.1924 66.8667C58.3428 67.0135 58.5415 67.0869 58.7886 67.0869ZM60.4106 65.583V64.5142H63.1821V65.583H60.4106ZM64.6001 68V60.1475H65.8892V68H64.6001ZM74.3379 63.9985C74.3379 64.883 74.1732 65.6224 73.8438 66.2168C73.5143 66.8076 73.0363 67.2534 72.4097 67.5542C71.783 67.8514 71.0275 68 70.1431 68H67.9624V60.1475H70.3794C71.1922 60.1475 71.894 60.2943 72.4849 60.5879C73.0757 60.8779 73.5322 61.3094 73.8545 61.8823C74.1768 62.4517 74.3379 63.1571 74.3379 63.9985ZM72.9951 64.0361C72.9951 63.3916 72.8931 62.8617 72.689 62.4463C72.4884 62.0309 72.1912 61.723 71.7974 61.5225C71.4071 61.3184 70.9255 61.2163 70.3525 61.2163H69.2515V66.9204H70.1646C71.1134 66.9204 71.8224 66.6787 72.2915 66.1953C72.7606 65.7119 72.9951 64.9922 72.9951 64.0361Z" fill="white"/>
<defs>
<filter id="filter0_ddii_33_23841" x="0.25" y="0.25" width="108.5" height="108.5" filterUnits="userSpaceOnUse" color-interpolation-filters="sRGB">
<feFlood flood-opacity="0" result="BackgroundImageFix"/>
<feColorMatrix in="SourceAlpha" type="matrix" values="0 0 0 0 0 0 0 0 0 0 0 0 0 0 0 0 0 0 127 0" result="hardAlpha"/>
<feMorphology radius="1" operator="dilate" in="SourceAlpha" result="effect1_dropShadow_33_23841"/>
<feOffset dx="4" dy="4"/>
<feGaussianBlur stdDeviation="10"/>
<feComposite in2="hardAlpha" operator="out"/>
<feColorMatrix type="matrix" values="0 0 0 0 0.0463542 0 0 0 0 0.060398 0 0 0 0 0.125 0 0 0 1 0"/>
<feBlend mode="normal" in2="BackgroundImageFix" result="effect1_dropShadow_33_23841"/>
<feColorMatrix in="SourceAlpha" type="matrix" values="0 0 0 0 0 0 0 0 0 0 0 0 0 0 0 0 0 0 127 0" result="hardAlpha"/>
<feOffset dx="-1" dy="-1"/>
<feGaussianBlur stdDeviation="7.5"/>
<feComposite in2="hardAlpha" operator="out"/>
<feColorMatrix type="matrix" values="0 0 0 0 0.762007 0 0 0 0 0.752431 0 0 0 0 0.820833 0 0 0 0.2 0"/>
<feBlend mode="normal" in2="effect1_dropShadow_33_23841" result="effect2_dropShadow_33_23841"/>
<feBlend mode="normal" in="SourceGraphic" in2="effect2_dropShadow_33_23841" result="shape"/>
<feColorMatrix in="SourceAlpha" type="matrix" values="0 0 0 0 0 0 0 0 0 0 0 0 0 0 0 0 0 0 127 0" result="hardAlpha"/>
<feOffset dx="-4" dy="-4"/>
<feGaussianBlur stdDeviation="7.5"/>
<feComposite in2="hardAlpha" operator="arithmetic" k2="-1" k3="1"/>
<feColorMatrix type="matrix" values="0 0 0 0 0 0 0 0 0 0 0 0 0 0 0 0 0 0 0.4 0"/>
<feBlend mode="normal" in2="shape" result="effect3_innerShadow_33_23841"/>
<feColorMatrix in="SourceAlpha" type="matrix" values="0 0 0 0 0 0 0 0 0 0 0 0 0 0 0 0 0 0 127 0" result="hardAlpha"/>
<feOffset dx="2" dy="2"/>
<feGaussianBlur stdDeviation="2"/>
<feComposite in2="hardAlpha" operator="arithmetic" k2="-1" k3="1"/>
<feColorMatrix type="matrix" values="0 0 0 0 0.616667 0 0 0 0 0.520833 0 0 0 0 1 0 0 0 0.2 0"/>
<feBlend mode="normal" in2="effect3_innerShadow_33_23841" result="effect4_innerShadow_33_23841"/>
</filter>
<linearGradient id="paint0_linear_33_23841" x1="33.5313" y1="11.8075" x2="76.6856" y2="86.8962" gradientUnits="userSpaceOnUse">
<stop stop-color="#0D1C33"/>
<stop offset="1" stop-color="#2E1931"/>
</linearGradient>
<linearGradient id="paint1_linear_33_23841" x1="24.7453" y1="30.5708" x2="75.6415" y2="74.1085" gradientUnits="userSpaceOnUse">
<stop stop-color="#7B7FA4"/>
<stop offset="1" stop-color="#212F60" stop-opacity="0.91"/>
</linearGradient>
</defs>
</svg>
